<?xml version="1.0" encoding="utf-8"?>
<!-- Generator: Adobe Illustrator 19.1.0, SVG Export Plug-In . SVG Version: 6.00 Build 0)  -->
<svg version="1.1" id="Layer_1" xmlns="http://www.w3.org/2000/svg" xmlns:xlink="http://www.w3.org/1999/xlink" x="0px" y="0px"
	 viewBox="0 0 612 792" style="enable-background:new 0 0 612 792;" xml:space="preserve">
<style type="text/css">
	.st0{fill:#9E9E9E;}
</style>
<path class="st0" d="M300.9,453.8h-12.5v-89.7c0-0.6-0.2-1.1-0.6-1.5c-0.4-0.4-0.9-0.6-1.5-0.6h-12.5c-0.6,0-1.1,0.2-1.5,0.6
	c-0.4,0.4-0.6,0.9-0.6,1.5v89.7h-12.5c-1,0-1.6,0.4-2,1.3c-0.3,0.8-0.2,1.6,0.5,2.3l20.9,20.9c0.5,0.4,1,0.6,1.5,0.6
	c0.6,0,1.1-0.2,1.5-0.6l20.8-20.8c0.4-0.5,0.7-1,0.7-1.6c0-0.6-0.2-1.1-0.6-1.5C302,454,301.5,453.8,300.9,453.8L300.9,453.8z
	 M300.9,453.8"/>
<path class="st0" d="M300.6,387h12.5v89.7c0,0.6,0.2,1.1,0.6,1.5c0.4,0.4,0.9,0.6,1.5,0.6h12.5c0.6,0,1.1-0.2,1.5-0.6
	c0.4-0.4,0.6-0.9,0.6-1.5V387h12.5c1,0,1.6-0.4,2-1.3c0.3-0.8,0.2-1.6-0.5-2.3L323,362.6c-0.5-0.4-1-0.6-1.5-0.6
	c-0.6,0-1.1,0.2-1.5,0.6l-20.8,20.8c-0.4,0.5-0.7,1-0.7,1.6c0,0.6,0.2,1.1,0.6,1.5C299.5,386.8,300,387,300.6,387L300.6,387z
	 M300.6,387"/>
</svg>
